PathFileType	4	(X/Y/Z)	Patient4_TMGait_0pt5_01_right_34.trc.trc
DataRate	CameraRate	NumFrames	NumMarkers	Units	OrigDataRate	OrigDataStartFrame	OrigNumFrames
75.675675675676	75.675675675676	7	33	mm	75.675675675676	18	       141
Frame#	Time	L.ASIS			Sacral			L.Shoulder			Chest			R.Shoulder			Neck			R.ASIS			R.Thigh.Superior			R.Thigh.Lateral			R.Thigh.Inferior			R.Patella			L.Thigh.Superior			L.Thigh.Lateral			L.Thigh.Inferior			L.Patella			L.Shank.Superior			L.Shank.Lateral			L.Shank.Inferior			R.Shank.Superior			R.Shank.Lateral			R.Shank.Inferior			R.Heel			R.Midfoot.Superior			R.Midfoot.Lateral			R.Toe			L.Heel			L.Midfoot.Lateral			L.Midfoot.Superior			L.Toe			L.Elbow			L.Wrist			R.Elbow			R.Wrist			
		X1	Y1	Z1	X2	Y2	Z2	X3	Y3	Z3	X4	Y4	Z4	X5	Y5	Z5	X6	Y6	Z6	X7	Y7	Z7	X8	Y8	Z8	X9	Y9	Z9	X10	Y10	Z10	X11	Y11	Z11	X12	Y12	Z12	X13	Y13	Z13	X14	Y14	Z14	X15	Y15	Z15	X16	Y16	Z16	X17	Y17	Z17	X18	Y18	Z18	X19	Y19	Z19	X20	Y20	Z20	X21	Y21	Z21	X22	Y22	Z22	X23	Y23	Z23	X24	Y24	Z24	X25	Y25	Z25	X26	Y26	Z26	X27	Y27	Z27	X28	Y28	Z28	X29	Y29	Z29	X30	Y30	Z30	X31	Y31	Z31	X32	Y32	Z32	X33	Y33	Z33	

18	44.844642857143	847.554932744298	955.260740998377	316.455142335679	626.098914483157	1016.705124035027	457.592576324401	851.968092455945	1430.629753160887	288.352509224558	930.964429452563	1351.215395671740	458.224683438483	837.934559859492	1434.422170387916	623.663385433074	845.946069787538	1492.349053441542	438.157277153295	840.921395687470	942.098048239296	591.702554711469	920.288754668828	773.077943341761	559.095983034775	874.261015878555	652.289448359691	628.407856050602	961.395393501114	614.897564992852	547.282612191030	993.646054276096	524.339811057172	564.777708515984	864.726201126179	735.531116872089	349.654461021309	762.991775375722	635.635707327580	278.553153356802	824.667649216281	545.766834408930	349.595784110668	812.417551753280	475.942525145260	357.686128866205	779.313265935886	408.431972865506	344.840673225341	681.142216598744	305.587813366083	287.929199837691	714.656122409361	188.629726545492	358.319176047848	963.326931514621	434.170700366542	573.883528219356	893.302368353415	329.972333539852	636.049577672246	945.986011685808	234.933622677528	583.791933046529	823.419331362676	62.504336493824	554.559051470059	993.090454808532	120.473811042142	598.924407154840	904.955076446246	54.609724554714	631.287588801303	1110.536402854580	70.570042603443	629.683311932005	571.282969483875	39.069473631834	393.671791903106	644.711854048239	35.621053701713	313.003907501277	729.205402946536	95.654718751739	339.933377505638	856.537870083198	40.143396127412	308.882870943087	780.434122164889	1093.382844234095	149.876159806784	944.775919772785	890.435068118946	139.284787360142	704.670626984469	1120.148951073634	747.690601579390	684.301748272850	864.176431143927	786.035628085583	
19	44.857857142857	849.604491928641	954.266915875034	318.588768463178	627.978087192966	1015.130320064886	459.549285711418	853.082362383028	1429.487546360425	291.087122757635	931.709435714999	1350.227971828643	461.129503596744	838.028874172462	1433.262754873277	626.308770869193	846.314436467413	1491.189668767417	440.873379946755	842.547506447565	940.453206515973	593.936581715254	919.918709540303	769.451358773601	561.960707752443	871.916505220111	649.227841756955	630.802674890990	958.875805847044	611.529634750895	549.742356548561	990.564374974565	522.936280368706	566.503431809724	864.887621610571	733.725588947774	351.499411827705	762.118444456718	634.694613648507	279.921345610711	822.703783047037	544.148399346955	350.896707967039	809.827772075159	474.290896300135	358.736840761569	775.955664645192	407.025736924739	345.874446568069	676.711002655544	305.257951527239	288.761052824442	708.910941014076	187.810966307517	358.846617890177	964.038847830694	432.418583206153	575.841596500284	898.430432727235	324.931412687117	637.763167415171	955.452196712603	232.273577842830	585.121946854181	840.302774186243	54.836363225446	555.228774628876	1007.880956094337	119.195484333609	599.621547630215	922.365040342385	49.523519543781	631.747872812512	1127.642303176933	73.749814410518	629.847315246872	564.578173164336	38.631126416505	393.628905947195	638.060826430561	35.332766534719	313.047141180282	722.521617505691	95.483858017736	340.059025983454	849.948835721906	40.124043480952	308.838110543177	783.635907492254	1091.896063215940	152.667792565764	949.649629717653	890.307374993658	144.229821058484	701.193773055913	1120.670982105447	749.502275548776	677.430106031626	864.936643227165	787.542237272125	
20	44.871071428571	851.810351560319	953.156792996578	320.846406027233	629.987143041349	1013.252893136101	461.812680412458	853.821018856146	1428.144270954919	294.022428383398	932.409761025923	1349.111594929006	464.122417858329	838.260368215233	1431.881105128225	629.206250513899	846.549964307384	1489.832189703651	443.791456083870	844.441938623696	938.493147924079	596.255909455659	919.969055710701	765.604608245878	564.993947199809	869.958082171537	645.939313569630	633.118772659737	956.893134637627	608.043391947055	552.211349312161	987.574150319509	520.978597783859	568.172530616078	865.406216041684	731.814981190511	353.342013484390	761.668514644481	633.516716771878	281.522587949479	821.383167680014	542.343973808224	352.329124270340	807.992980795731	472.337169908760	359.907074669099	773.128364874270	405.388118520560	347.033443251425	672.613798554268	304.889258711397	289.697048949089	703.298035538025	186.890314167586	359.411088289722	964.305742656545	430.220428929288	577.728798050454	902.227718531554	320.222411844649	639.235812144489	962.726009985361	229.638707740104	586.293916211753	853.493675801311	49.033577239926	555.538768406514	1019.292834240273	117.641339185270	600.138236154880	935.736946610780	45.452550436162	631.992724922707	1140.575558760057	75.343902251754	630.058115992373	557.830202703713	38.201807031999	393.540078041988	631.401096377536	35.012614479388	313.057757276383	715.861931011715	95.270675294453	340.161802065276	843.382293682006	40.086252405339	308.776411686932	786.450970417084	1090.084693668071	155.888203166014	954.137063127277	889.888016127420	149.340513041012	698.669242511955	1120.525099061391	751.323190988761	672.022231775871	864.938506804630	788.832975656915	
21	44.884285714286	854.113419482771	951.970356610665	323.248025622434	632.061707123699	1011.138746084700	464.346447583347	854.195910975310	1426.649049344947	297.159825989984	933.074932951589	1347.907413144707	467.211177008979	838.625700609966	1430.309328548199	632.358520326917	846.683552735836	1488.325788279874	446.921154360457	846.551370513280	936.290787520412	598.656931282534	920.518742164137	761.735712696754	568.148513338532	868.497387586514	642.578821991838	635.295598306389	955.597218780717	604.604964416907	554.679593032508	984.877612993800	518.593906216838	569.779430178161	866.318067554465	729.852089359523	355.207578362535	761.742339450943	632.112438999672	283.372971626080	820.858217932775	540.381515838426	353.919100089657	807.089383742754	470.075088096833	361.205815542301	770.974757309204	403.534374485431	348.326833382965	668.967914180142	304.549505637879	290.739697390454	697.900199052660	185.929668706065	360.006040352879	964.261265265736	427.667299434628	579.492988265628	904.760135876839	315.894715790414	640.475414672928	967.800169184890	226.977814272248	587.270102288650	862.743551270757	44.935066292107	555.541919895080	1027.248506364581	115.703649850914	600.432206685052	944.908008674194	42.282516556763	632.074587123094	1149.363049800833	75.210294779237	630.270687237753	551.061618324736	37.946494225471	393.398349234494	624.746039096897	34.759856453241	313.031556605000	709.280193403871	95.044909066451	340.232460312495	836.834631297683	40.003618389641	308.700184243367	788.827571785075	1087.994656478994	159.538510692414	958.175479889598	889.204001456818	154.561780795947	697.088741730932	1119.717789596600	753.177519902442	668.112038713769	864.184900964995	789.954819757410	
22	44.897500000000	856.431388219636	950.765744707841	325.801536672822	634.128409234276	1008.882145863245	467.107819139258	854.237764530526	1425.076594405668	300.494811119488	933.717155792335	1346.672304323769	470.399253898573	839.124062962112	1428.601505035359	635.756630200549	846.757127884188	1486.742802360468	450.266753209648	848.810411366037	933.952282108688	601.133840931047	921.597250081614	758.035720817579	571.373030125126	867.592225949152	639.313780257475	637.297603903786	955.057639391920	601.370107729803	557.142208060298	982.638302238215	515.946010021120	571.322432464697	867.653663741326	727.920489344475	357.125329534075	762.452801840650	630.512619522266	285.478678237676	821.297970377463	538.317323677687	355.685972672078	807.308711085680	467.530478251403	362.630742455056	769.661224228029	401.504240407029	349.759283562206	665.917299934542	304.337074972343	291.893012894303	692.828590454523	185.025564447466	360.627695418647	964.033242934418	424.891049915686	581.093662522524	906.167491582098	312.009296256579	641.517088951432	970.786745667536	224.290693178474	588.030275826704	868.073991003312	42.310226897469	555.320006659700	1031.860392605663	113.375390167163	600.484947897088	949.990364248823	39.898992342460	632.056099701156	1154.247947741409	73.435428460687	630.435373325976	544.315603692582	38.097910559719	393.208693716808	618.119601592648	34.725991545085	312.972989360503	702.850719572160	94.859395626379	340.268185123465	830.296925524887	39.845045069410	308.616473790722	790.731558778709	1085.699600000282	163.613116535406	961.693446504119	888.285328489215	159.845700443745	696.439887369856	1118.291660676926	755.087136009756	665.731812311329	862.713819726508	790.949104823403	
23	44.910714285714	858.665399332497	949.616673404713	328.498605734032	636.110392234865	1006.601445198408	470.051360360803	853.995977514114	1423.524779405068	304.014238955121	934.348942543563	1345.475330711507	473.682840127198	839.757584768703	1426.833082577697	639.378311220716	846.819898547718	1485.174507986378	453.823137637288	851.143894761725	931.611284876785	603.678687391971	923.172087948361	754.675422147127	574.615516576094	867.246915500030	636.314106521525	639.122599269577	955.251064762374	598.476045159439	559.592654994911	980.958174055794	513.223247293747	572.805539306094	869.433363301280	726.132580161412	359.124315492014	763.916545185424	628.770789441846	287.833777907359	822.875232359813	536.237490890100	357.638413462443	808.841709136130	464.766754730338	364.167939105450	769.365493938086	399.363718620907	351.330623331441	663.625562345537	304.378097530729	293.163819126914	688.219061291527	184.309109830097	361.278454556297	963.724332053638	422.054007851295	582.511525825064	906.635802869082	308.634645731428	642.417008768806	971.898257914450	221.629996893914	588.577427377157	869.769952926801	40.881722708615	554.967515382665	1033.415814118356	110.751550971094	600.310896142116	951.353299138894	38.191325779961	631.998233145741	1155.660830660474	70.322425490692	630.514928809777	537.659850401848	38.948378238338	392.992833630310	611.559234108588	35.113695602240	312.898524013659	696.666983527730	94.792553907782	340.276335507449	823.756007235437	39.578917881925	308.537765716414	792.148454447270	1083.301867697813	168.096502963021	964.613129627188	887.166451318755	165.154125171081	696.707275761799	1116.324728476813	757.069341432140	664.913756547138	860.598555118386	791.850781837299	
24	44.923928571429	860.709383995424	948.605910486568	331.313636187753	637.935498998945	1004.429852380818	473.134122114370	853.535791662032	1422.107426037331	307.694134387978	934.980051284754	1344.391600702156	477.048544862747	840.529349846655	1425.096685354063	643.186824032205	846.922168485051	1483.723049188578	457.572173866881	853.471428462888	929.417272872375	606.281970999186	925.144459738107	751.792986151251	577.825968586773	867.414708452215	633.736226396442	640.802229776647	956.059807448193	596.030845227803	562.017044030377	979.856720992802	510.616064773865	574.240050691673	871.662583378048	724.622025701140	361.229689304372	766.241713848576	626.962847926946	290.418651577205	825.748122055245	534.255258066583	359.771290723763	811.855868219235	461.885947577396	365.793652869050	770.259652205595	397.203881933702	353.035232797919	662.263407445226	304.818224593230	294.562153828259	684.223703355999	183.940333084464	361.969844570365	963.391019431830	419.328437232167	583.753930167013	906.359356234697	305.833572855358	643.242876123282	971.413136103550	219.087744429417	588.939963980640	868.334156196472	40.351933237325	554.576616358118	1032.340019700955	108.006108429528	599.958095581174	949.569501501337	37.050590320248	631.951109859412	1154.169169340456	66.333216795175	630.495797456599	531.188503550291	40.828896104656	392.792526109729	605.118470941015	36.167152005169	312.838881543783	690.837375870381	94.947697677906	340.277552660915	817.197445968155	39.178947923228	308.481904799244	793.084012746235	1080.929349644520	172.958846323492	966.855565281887	885.888082097162	170.460073302804	697.870463098925	1113.926486957253	759.135720137799	665.690268152830	857.945644078070	792.688209261215	
